<?xml version="1.0" standalone="no"?>
<!DOCTYPE svg PUBLIC "-//W3C//DTD SVG 20010904//EN"
 "http://www.w3.org/TR/2001/REC-SVG-20010904/DTD/svg10.dtd">
<svg version="1.0" xmlns="http://www.w3.org/2000/svg"
 width="88.000000pt" height="88.000000pt" viewBox="0 0 88.000000 88.000000"
 preserveAspectRatio="xMidYMid meet">
<metadata>
Created by potrace 1.14, written by Peter Selinger 2001-2017
</metadata>
<g transform="translate(0.000000,88.000000) scale(0.100000,-0.100000)"
fill="#000000" stroke="none">
<path d="M0 440 l0 -440 440 0 440 0 0 440 0 440 -440 0 -440 0 0 -440z m531
255 c88 -31 142 -94 165 -191 9 -42 9 -54 0 -54 -6 0 -17 19 -24 43 -25 93
-94 158 -187 177 -126 26 -259 -64 -280 -191 -4 -26 -12 -39 -22 -39 -22 0 -9
71 25 133 62 114 198 166 323 122z m9 -55 c19 -10 44 -28 55 -41 l20 -24 -25
22 c-38 33 -94 53 -150 53 -56 0 -112 -20 -150 -53 l-25 -22 20 24 c57 67 168
85 255 41z m-310 -155 c-6 -30 -8 -33 -9 -13 -1 25 8 62 14 56 2 -2 -1 -21 -5
-43z m163 31 c9 -7 17 -22 17 -32 0 -16 -3 -14 -13 6 -7 15 -25 28 -42 31 -27
6 -28 7 -5 7 14 1 33 -5 43 -12z m75 7 c-10 -2 -26 -2 -35 0 -10 3 -2 5 17 5
19 0 27 -2 18 -5z m100 0 c-10 -2 -26 -2 -35 0 -10 3 -2 5 17 5 19 0 27 -2 18
-5z m92 -42 c0 -32 -6 -24 -14 19 -4 25 -3 31 4 20 5 -8 10 -26 10 -39z m-330
14 c0 -8 18 -27 40 -41 39 -26 59 -62 46 -83 -4 -5 8 -12 26 -14 19 -3 15 -3
-9 -2 -24 1 -43 -1 -43 -6 0 -5 -12 -9 -27 -8 l-28 1 25 7 c43 12 37 45 -14
81 -42 28 -57 56 -39 73 11 12 23 8 23 -8z m131 -7 c1 -13 1 -27 0 -32 -2 -9
11 -1 59 38 23 19 23 18 -2 -10 l-28 -30 35 -34 c19 -19 35 -38 35 -42 0 -18
-28 -6 -55 22 -36 38 -45 38 -45 -1 0 -20 -4 -29 -12 -27 -13 5 -24 99 -14
124 8 22 26 16 27 -8z m-246 -113 c22 -76 81 -137 154 -159 68 -20 74 -20 142
0 73 22 132 83 154 159 10 34 22 55 31 55 37 0 -4 -115 -62 -176 -59 -60 -96
-74 -194 -74 -98 0 -135 14 -194 74 -58 61 -99 176 -62 176 9 0 21 -21 31 -55z
m19 5 c4 -25 3 -31 -4 -20 -5 8 -10 26 -10 39 0 32 6 24 14 -19z m416 -17
c-11 -17 -11 -17 -6 0 3 10 7 28 7 40 2 22 2 22 6 0 2 -12 -1 -30 -7 -40z
m-334 13 c9 -19 9 -23 -1 -19 -14 5 -28 43 -17 43 4 0 12 -11 18 -24z m267
-23 c-13 -2 -33 -2 -45 0 -13 2 -3 4 22 4 25 0 35 -2 23 -4z m-231 -107 c74
-31 179 -15 238 37 l25 22 -20 -24 c-74 -87 -236 -85 -315 6 l-25 28 30 -27
c17 -15 47 -34 67 -42z"/>
</g>
</svg>
